PathFileType	4	(X/Y/Z)	s03c0302.trc
DataRate	CameraRate	NumFrames	NumMarkers	Units	OrigDataRate	OrigDataStartFrame	OrigNumFrames
200	200	6	52	mm	200	1000	2000
Frame#	Time	racr			lacr			c7			jug			rlel			rdr			llel			ldr			s2			lic			ric			lasi			rasi			rpsi			lpsi			rgt			lgt			rth1			rth2			rth3			rth4			rlfc			rmfc			rsh1			rsh2			rsh3			rsh4			rlmal			rmmal			rcal			rtoe			rmt5			rmt1			lth1			lth2			lth4			lth3			llfc			lmfc			lsh1			lsh2			lsh3			lsh4			llmal			lmmal			lcal			ltoe			lmt1			lmt5			SBIKE			LBIKE			RBIKE			
		X1	Y1	Z1	X2	Y2	Z2	X3	Y3	Z3	X4	Y4	Z4	X5	Y5	Z5	X6	Y6	Z6	X7	Y7	Z7	X8	Y8	Z8	X9	Y9	Z9	X10	Y10	Z10	X11	Y11	Z11	X12	Y12	Z12	X13	Y13	Z13	X14	Y14	Z14	X15	Y15	Z15	X16	Y16	Z16	X17	Y17	Z17	X18	Y18	Z18	X19	Y19	Z19	X20	Y20	Z20	X21	Y21	Z21	X22	Y22	Z22	X23	Y23	Z23	X24	Y24	Z24	X25	Y25	Z25	X26	Y26	Z26	X27	Y27	Z27	X28	Y28	Z28	X29	Y29	Z29	X30	Y30	Z30	X31	Y31	Z31	X32	Y32	Z32	X33	Y33	Z33	X34	Y34	Z34	X35	Y35	Z35	X36	Y36	Z36	X37	Y37	Z37	X38	Y38	Z38	X39	Y39	Z39	X40	Y40	Z40	X41	Y41	Z41	X42	Y42	Z42	X43	Y43	Z43	X44	Y44	Z44	X45	Y45	Z45	X46	Y46	Z46	X47	Y47	Z47	X48	Y48	Z48	X49	Y49	Z49	X50	Y50	Z50	X51	Y51	Z51	X52	Y52	Z52	
1000	5.0000	763.699427	1422.417449	-140.128444	718.554335	1441.898358	-458.105194	694.957624	1523.019046	-292.343837	682.988916	1348.523864	-291.020078	667.645655	1190.533382	11.580873	759.930669	932.127239	-49.482987	606.028989	1180.564526	-529.259659	745.287347	938.839993	-427.428827	147.523674	1303.557627	-228.607091	302.575883	1305.517489	-428.853598	331.422840	1322.681220	-61.786321	316.386848	1230.775468	-384.698081	348.040098	1248.056250	-105.931533	185.407604	1352.982408	-191.985158	179.401782	1348.928524	-270.438810	266.901338	1225.061118	-36.478845	239.636240	1192.948996	-429.462553	345.859212	1081.713680	-15.529584	414.160674	1025.004552	-16.426699	447.050860	946.190504	-12.254333	441.585015	1044.538669	-29.999039	491.134805	822.460864	-24.598515	489.729353	797.970969	-144.077201	358.424460	716.670184	-5.277853	301.806729	649.873161	-24.648479	219.007835	620.151274	-30.041896	322.035163	628.336389	-47.891243	107.438018	553.273908	-58.305955	139.812734	542.219301	-138.546566	41.236693	574.042853	-98.883963	204.310887	310.081501	-120.256746	126.711944	395.769588	-44.158435	155.083881	391.557611	-157.197730	309.411450	1045.581146	-449.629646	366.281599	980.101192	-451.237105	399.050917	996.570269	-447.649173	383.977914	893.274460	-440.711492	456.500384	783.118687	-420.291756	459.419394	769.900414	-300.337490	386.832369	623.665568	-446.380609	380.640547	539.307945	-426.594447	331.115652	464.961755	-426.151350	410.979207	531.773535	-405.082874	281.707483	348.758975	-413.889631	0.000000	0.000000	-0.000000	210.418209	306.359317	-367.922460	519.340444	267.283839	-361.668951	424.719024	276.658088	-320.432188	399.291671	257.505950	-436.441439	-216.267568	944.610640	-234.726253	-11.924938	80.857115	-435.499914	-11.978301	81.059986	-35.056871	
1001	5.0050	763.054952	1422.420026	-138.675708	721.015484	1439.215914	-456.006197	695.391176	1521.947577	-291.575788	683.906074	1347.617855	-288.844209	668.322151	1189.674634	12.257978	760.055221	931.688076	-49.333344	606.341856	1178.756057	-529.360568	745.118903	938.146183	-427.313936	147.633373	1300.774820	-230.914155	304.039006	1300.791480	-430.261612	331.798335	1320.306250	-63.418558	317.804951	1226.652561	-385.842759	348.499498	1246.188483	-107.648089	184.715574	1351.210712	-192.520456	179.800740	1346.030560	-274.827058	268.207287	1223.470799	-37.269937	239.889803	1188.108621	-430.244415	348.422868	1082.763049	-14.982501	417.918628	1027.366515	-15.141167	452.182224	949.143354	-10.326980	444.888496	1047.274881	-29.272770	498.998457	826.808434	-22.366654	497.144989	802.003082	-142.085349	364.696649	722.392000	-3.791364	307.168630	656.615405	-23.712797	224.061089	628.150276	-29.488100	327.237051	634.902097	-46.891121	111.483251	563.169443	-58.344350	144.068364	552.003587	-138.692058	44.982622	583.679145	-99.280409	209.187364	320.505067	-120.592426	131.338915	405.918301	-44.314300	159.675345	401.702077	-157.375363	307.078175	1039.477062	-449.202088	362.415996	972.762198	-450.875004	395.595845	988.405349	-447.151818	378.115614	885.538373	-439.176797	448.853109	774.744696	-418.473700	451.804796	761.820574	-299.258574	380.248386	615.145378	-445.408863	374.941321	531.712527	-428.047953	326.086301	455.782742	-425.830387	405.813745	524.898880	-407.203052	277.410306	338.242714	-412.788215	0.000000	0.000000	-0.000000	206.343211	297.315638	-368.298935	515.052177	256.229030	-361.428393	420.016131	265.753795	-319.318161	395.120458	247.146577	-436.335689	-216.230970	944.582476	-235.109525	-11.910814	80.788754	-435.516032	-11.943638	81.035361	-35.077574	
1002	5.0100	762.316184	1422.735632	-137.048676	723.346490	1436.980094	-454.586421	695.548882	1521.171425	-290.837543	684.798947	1346.904913	-286.894350	668.764892	1189.186184	12.875684	760.045884	931.467923	-49.155987	606.735441	1177.298371	-529.417252	744.932026	937.070176	-427.164714	147.590273	1297.919558	-232.690714	305.515296	1296.149532	-431.675969	332.092554	1318.158723	-65.232795	319.411288	1222.504097	-386.841715	348.978619	1244.532337	-109.354433	184.038590	1348.396547	-191.080394	180.599975	1341.841503	-274.164926	269.512149	1221.888323	-38.141254	240.574668	1183.104697	-431.141061	351.009137	1084.069677	-14.680571	421.662250	1030.198827	-14.123862	457.563406	952.618163	-8.654520	448.165477	1050.489154	-28.778056	506.768812	831.768839	-20.213424	504.361781	804.916712	-138.070981	371.160136	728.218234	-2.323534	312.793133	663.323091	-22.821063	229.276516	636.019934	-29.028586	332.626776	641.449956	-46.038125	115.874317	572.730811	-58.543008	148.599808	561.648868	-138.858459	49.046800	592.929456	-99.600059	214.749278	330.882612	-120.881829	136.474676	415.816625	-44.637981	161.876608	410.314417	-160.027535	304.759350	1033.227744	-448.871587	358.534149	965.302454	-450.136550	392.098587	980.256884	-446.700219	372.386365	877.881534	-437.562652	441.569138	766.447930	-416.113671	442.827948	754.158849	-296.978682	373.544382	606.939993	-444.481231	368.658314	523.647378	-427.730782	320.662876	447.123381	-425.518066	399.962194	516.877182	-406.996427	272.732053	329.218690	-412.936689	0.000000	0.000000	-0.000000	201.765825	288.872174	-368.701481	510.194708	245.205821	-361.107921	414.818216	255.377497	-318.266102	390.255556	237.088168	-436.255311	-216.200756	944.558652	-235.255730	-11.891991	80.733134	-435.561513	-11.952533	81.027331	-35.109778	
1003	5.0150	761.331706	1423.413649	-135.255182	725.539804	1435.021445	-453.257858	695.529747	1520.694950	-290.066289	685.689559	1346.447718	-285.027497	668.528832	1188.857665	14.002216	759.542385	931.331751	-49.325164	607.397895	1176.401867	-529.284964	744.677989	935.955165	-426.737320	147.823241	1294.547736	-233.854275	306.985458	1291.662227	-433.025741	332.047991	1316.071261	-66.944958	321.172419	1218.514080	-387.790137	349.445095	1242.905840	-110.978445	183.465757	1345.615209	-191.143257	181.020213	1338.644372	-277.587896	270.672505	1220.281272	-39.102210	241.269573	1178.313238	-431.759013	353.660172	1085.665540	-14.506594	425.524137	1033.427537	-13.422226	463.208924	956.694143	-7.280846	451.594162	1054.070930	-28.678401	514.388564	837.232058	-18.168883	511.416021	808.234171	-132.400512	377.609215	734.065227	-1.031756	319.646206	670.457922	-21.141831	234.723499	643.816876	-28.631323	338.232686	648.110948	-45.281598	120.620724	582.019175	-58.757644	153.569331	571.069351	-139.092946	53.506599	601.848827	-99.929216	221.028609	340.785998	-121.197563	142.223037	425.510851	-44.986364	166.778709	420.837142	-159.940462	302.380381	1026.980345	-448.596566	354.691922	957.967449	-449.358089	388.626362	972.225554	-446.323271	366.744836	870.329150	-435.860964	433.906217	758.682681	-414.357737	435.061708	746.148240	-295.433404	366.990848	599.370706	-444.449171	362.308196	515.454587	-426.403846	314.963539	438.891628	-425.252712	393.312263	507.350849	-403.495335	267.457859	320.718214	-413.074249	0.000000	0.000000	-0.000000	196.703814	280.972915	-369.021673	504.800649	234.528653	-360.852573	409.502315	245.735050	-318.245859	384.730955	227.374175	-436.264348	-216.200941	944.531950	-235.403196	-11.899748	80.671258	-435.578693	-11.952121	81.021611	-35.113649	
1004	5.0200	760.191426	1424.402555	-133.313081	727.645582	1433.475982	-451.662483	695.412440	1520.551340	-289.348518	686.632501	1346.262638	-283.242250	668.079842	1188.852114	14.989513	759.499784	931.384442	-49.018985	608.544124	1176.122720	-529.028126	744.012674	933.420464	-421.039704	147.794272	1291.028258	-235.736309	308.444783	1287.361661	-434.311768	331.721972	1314.452360	-68.615791	323.208829	1214.691237	-388.882190	349.754427	1241.334964	-112.625290	183.521622	1342.441952	-193.611717	181.815284	1335.401289	-280.157817	271.807784	1218.643205	-40.131993	242.100280	1173.542805	-432.001777	356.322180	1087.560216	-14.554133	429.420942	1037.206434	-12.330284	469.020950	961.183864	-6.255224	454.972861	1058.009817	-28.756633	521.859511	842.729121	-16.263528	519.508696	812.803976	-130.800383	384.240300	739.957988	0.089985	325.511576	677.175541	-20.522155	240.390402	651.517385	-28.318048	343.938275	654.565472	-44.750934	125.903795	590.863708	-58.910981	158.958835	580.090783	-139.429158	58.324323	610.322123	-100.313219	227.831506	350.753250	-121.488833	148.379342	434.810694	-45.373278	173.370679	429.717997	-160.413402	300.110595	1020.910108	-448.366762	350.898407	950.820189	-448.596479	385.117506	964.369723	-445.867131	361.174653	863.052919	-434.290186	426.265618	751.108077	-412.690197	427.123559	738.671440	-294.116614	360.441663	591.889252	-443.783972	356.131920	507.913668	-425.939310	309.124666	431.099993	-425.118947	387.076311	499.819232	-402.896527	261.824915	312.838746	-413.269857	0.000000	0.000000	-0.000000	191.111463	273.601623	-369.487592	498.768369	224.172196	-360.628495	403.471705	236.563384	-318.103079	378.842347	218.028428	-436.185992	-216.212870	944.492025	-235.497163	-11.894731	80.645216	-435.593895	-11.949217	80.990758	-35.121000	
1005	5.0250	758.677776	1425.774273	-131.472292	729.575731	1432.819071	-450.944061	695.122316	1520.743471	-288.607210	687.610813	1346.312666	-281.659281	667.394671	1188.988055	15.911160	759.459813	931.529401	-48.614026	610.158647	1176.155177	-528.827504	744.613409	933.351382	-426.268209	147.733243	1287.937845	-237.552691	310.011391	1283.347356	-435.630804	331.217016	1313.520802	-70.021474	325.532385	1211.069404	-389.692873	350.043403	1239.996849	-113.972078	183.653591	1339.396349	-196.438834	182.568851	1331.951997	-282.141783	272.741916	1217.133814	-41.126119	243.207062	1168.848142	-432.721757	359.038100	1089.654838	-14.737272	433.520655	1041.150561	-11.819398	474.816902	966.115733	-5.506738	458.352968	1062.361394	-29.227017	529.058306	848.328801	-14.668026	529.363639	821.098992	-138.075346	390.997419	745.958242	1.061400	331.737786	683.923544	-19.962983	246.303636	659.069199	-28.107866	349.998149	661.064367	-43.933524	131.498682	599.313788	-59.087072	164.713063	588.787924	-139.775399	63.600850	618.275806	-100.615641	235.217155	360.168926	-121.822537	155.509826	443.661615	-45.487219	179.974785	438.836728	-160.883298	297.938452	1015.271149	-448.161821	347.140205	944.035897	-448.114406	381.682993	956.817179	-445.570920	355.557767	856.185292	-433.119301	418.582693	743.869688	-411.186766	419.049817	731.554988	-292.910012	353.844332	584.890289	-442.965862	349.831389	500.730225	-425.437585	303.119649	423.839893	-425.110294	380.685815	492.862040	-402.260805	255.916636	305.382237	-413.535084	0.000000	0.000000	-0.000000	185.230003	266.843032	-369.962175	492.388409	214.056263	-360.178854	397.217123	227.936905	-318.134507	372.411831	209.093925	-436.085991	-216.227318	944.457226	-235.540589	-11.896150	80.609686	-435.601126	-11.927800	80.937437	-35.125117	
